<svg width="20" height="20" viewBox="0 0 20 20" fill="none" xmlns="http://www.w3.org/2000/svg">
<path d="M13.6667 5.65789V6.15789H14.1667H16.6667C16.9846 6.15789 17.2844 6.27778 17.5014 6.48333C17.7174 6.68802 17.8334 6.95968 17.8334 7.23684V15.9211C17.8334 16.1982 17.7174 16.4699 17.5014 16.6746C17.2844 16.8801 16.9846 17 16.6667 17H3.33341C3.01553 17 2.71575 16.8801 2.49878 16.6746C2.28272 16.4699 2.16675 16.1982 2.16675 15.9211V7.23684C2.16675 6.95968 2.28272 6.68802 2.49878 6.48333C2.71575 6.27778 3.01553 6.15789 3.33341 6.15789H5.83342H6.33342V5.65789V4.86842C6.33342 4.38188 6.53718 3.90941 6.90952 3.55667C7.28278 3.20306 7.79452 3 8.33342 3H11.6667C12.2056 3 12.7174 3.20306 13.0906 3.55667C13.463 3.90941 13.6667 4.38188 13.6667 4.86842V5.65789ZM12.5001 6.15789H13.0001V5.65789V4.86842C13.0001 4.51744 12.8527 4.18668 12.5999 3.9472C12.348 3.70859 12.0119 3.57895 11.6667 3.57895H8.33342C7.98825 3.57895 7.65215 3.70859 7.40029 3.9472C7.1475 4.18668 7.00008 4.51744 7.00008 4.86842V5.65789V6.15789H7.50008H12.5001ZM17.1667 7.23684V6.73684H16.6667H3.33341H2.83341V7.23684V10.0347V10.268L3.01212 10.4178C4.68874 11.8239 7.38237 12.4851 10.0001 12.4851C12.6178 12.4851 15.3114 11.8239 16.988 10.4178L17.1667 10.268V10.0347V7.23684ZM2.83341 15.9211V16.4211H3.33341H16.6667H17.1667V15.9211V11.9784V11.1541L16.4357 11.535C14.4711 12.5588 12.2548 13.0754 10.0099 13.0314L10.0001 13.0312L9.99025 13.0314C7.74538 13.0756 5.52906 12.5589 3.5645 11.535L2.83341 11.154V11.9784V15.9211ZM10.3334 9.60526C10.3334 9.74001 10.21 9.89474 10.0001 9.89474C9.79017 9.89474 9.66675 9.74001 9.66675 9.60526C9.66675 9.47052 9.79017 9.31579 10.0001 9.31579C10.21 9.31579 10.3334 9.47052 10.3334 9.60526Z" fill="#9CA3AF" stroke="#9CA3AF"/>
</svg>
