<svg width="20" height="20" viewBox="0 0 20 20" fill="none" xmlns="http://www.w3.org/2000/svg">
<mask id="path-1-inside-1_162_3128" fill="white">
<path d="M18.2784 11.1C18.2717 11.0642 18.2667 11.0292 18.2592 10.9942C18.2209 10.8084 18.1684 10.6267 18.0992 10.4517C18.0951 10.4409 18.0892 10.4309 18.0851 10.42C17.9309 10.0409 17.7084 9.69252 17.4267 9.39169C17.4751 9.18002 17.5001 8.96585 17.5001 8.75002C17.5001 8.55169 17.4801 8.35585 17.4409 8.16669C17.4217 8.07085 17.3842 7.98252 17.3551 7.89002C17.3267 7.80002 17.3076 7.70669 17.2709 7.62002C17.1209 7.26502 16.9026 6.94669 16.6326 6.68002C16.6551 6.53585 16.6667 6.39252 16.6667 6.25002C16.6667 5.02835 15.9084 3.95835 14.8009 3.53169C14.3751 2.42502 13.3051 1.66669 12.0834 1.66669C11.2667 1.66669 10.5301 2.00585 10.0001 2.54835C9.47008 2.00585 8.73341 1.66669 7.91675 1.66669C6.69508 1.66669 5.62508 2.42502 5.19925 3.53169C4.09175 3.95835 3.33341 5.02835 3.33341 6.25002C3.33341 6.39252 3.34508 6.53585 3.36675 6.67919C3.09675 6.94585 2.87841 7.26502 2.72841 7.61919C2.69341 7.70252 2.67508 7.79335 2.64758 7.88002C2.61758 7.97502 2.57925 8.06752 2.55925 8.16669C2.52008 8.35669 2.50008 8.55169 2.50008 8.75002C2.50008 8.96585 2.52508 9.17919 2.57341 9.39002L2.57091 9.39335C2.29008 9.69419 2.06758 10.0417 1.91425 10.4209C1.91008 10.4309 1.90508 10.44 1.90091 10.45C1.83175 10.6259 1.77925 10.8084 1.74008 10.9942C1.73258 11.0292 1.72758 11.0642 1.72091 11.0992C1.68925 11.2859 1.66675 11.475 1.66675 11.6667C1.66675 11.8709 1.69175 12.0684 1.72675 12.2634C1.73591 12.3117 1.74508 12.3592 1.75591 12.4075C1.79925 12.5959 1.85258 12.7809 1.92675 12.9567C1.93175 12.9684 1.93925 12.9792 1.94425 12.9917C2.01425 13.1525 2.10008 13.305 2.19508 13.4525C2.22675 13.5017 2.25925 13.55 2.29258 13.5975C2.38008 13.7192 2.47425 13.8342 2.57758 13.9434C2.63758 14.0067 2.70008 14.065 2.76508 14.1234C2.84925 14.1992 2.93591 14.2725 3.02758 14.34C3.11008 14.4009 3.19508 14.4567 3.28341 14.51C3.30091 14.52 3.31591 14.5334 3.33341 14.5434C3.33341 14.5575 3.33341 14.57 3.33341 14.5842C3.33341 16.06 4.43425 17.2825 5.85842 17.475C6.40341 18.0242 7.13425 18.3334 7.91675 18.3334C8.73341 18.3334 9.47008 17.9942 10.0001 17.4517C10.5301 17.9942 11.2667 18.3334 12.0834 18.3334C12.8659 18.3334 13.5967 18.0242 14.1417 17.4742C15.5659 17.2817 16.6667 16.0592 16.6667 14.5834C16.6667 14.5692 16.6667 14.5567 16.6667 14.5425C16.6842 14.5325 16.6992 14.52 16.7167 14.5092C16.8051 14.4559 16.8901 14.4 16.9726 14.3392C17.0651 14.2717 17.1509 14.1984 17.2351 14.1225C17.2992 14.0642 17.3626 14.0059 17.4226 13.9425C17.5259 13.8342 17.6201 13.7184 17.7076 13.5967C17.7417 13.5492 17.7742 13.5009 17.8051 13.4517C17.8992 13.3042 17.9851 13.1517 18.0559 12.9909C18.0609 12.9792 18.0684 12.9684 18.0734 12.9559C18.1476 12.78 18.2009 12.595 18.2442 12.4067C18.2551 12.3592 18.2642 12.3117 18.2734 12.2625C18.3084 12.0684 18.3334 11.8709 18.3334 11.6667C18.3334 11.475 18.3109 11.2859 18.2784 11.1ZM9.16675 15.4167C9.16675 16.1059 8.60591 16.6667 7.91675 16.6667C7.52675 16.6667 7.16508 16.4834 6.92341 16.1634C6.76591 15.955 6.52008 15.8325 6.25842 15.8325C6.24841 15.8325 6.23841 15.8325 6.22758 15.8334C5.69175 15.8234 5.24175 15.4734 5.07425 14.9925C5.51008 14.9825 5.93341 14.8967 6.33258 14.7234C6.75425 14.5392 6.94675 14.0475 6.76342 13.6267C6.57925 13.2042 6.08842 13.0109 5.66675 13.195C5.45592 13.2867 5.23175 13.3334 5.00008 13.3334C4.83008 13.3334 4.66925 13.3 4.51508 13.2534C4.50925 13.2517 4.50591 13.2467 4.50008 13.245C4.15425 13.135 3.86591 12.9234 3.66175 12.6509C3.65925 12.6475 3.65591 12.6442 3.65341 12.64C3.56008 12.5134 3.49008 12.3717 3.43591 12.2225C3.42591 12.195 3.41841 12.1667 3.41008 12.1384C3.36425 11.9875 3.33341 11.83 3.33341 11.6667C3.33341 11.4409 3.38925 11.2234 3.47508 11.02C3.59258 10.7467 3.77508 10.5034 4.03008 10.3192C4.12341 10.2517 4.19341 10.1659 4.24925 10.0725C4.25091 10.07 4.25091 10.0675 4.25258 10.065C4.30342 9.97919 4.33591 9.88669 4.35341 9.79002C4.35758 9.76835 4.35591 9.74669 4.35841 9.72419C4.36591 9.64752 4.36508 9.57252 4.35091 9.49502C4.34508 9.46002 4.33342 9.42752 4.32342 9.39419C4.31175 9.35835 4.31008 9.32085 4.29341 9.28585C4.20925 9.10835 4.16675 8.92752 4.16675 8.75002C4.16675 8.65085 4.18091 8.55502 4.20425 8.46085C4.21008 8.43669 4.21841 8.41419 4.22591 8.39085C4.24758 8.31919 4.27508 8.24919 4.30925 8.18252C4.31925 8.16335 4.32925 8.14419 4.34008 8.12585C4.44008 7.95585 4.57925 7.80669 4.75425 7.69585C4.75425 7.69585 4.75591 7.69419 4.75758 7.69335C4.94925 7.57252 5.17425 7.50002 5.41675 7.50002C5.58758 7.50002 5.75175 7.53335 5.90591 7.59919C6.32841 7.78252 6.81841 7.58419 7.00008 7.16169C7.18091 6.73835 6.98508 6.24835 6.56175 6.06752C6.19925 5.91252 5.81425 5.83335 5.41675 5.83335C5.29758 5.83335 5.18341 5.85502 5.06758 5.86835C5.20591 5.44252 5.56091 5.10919 6.02175 5.02419C6.36175 4.96169 6.62842 4.69502 6.69092 4.35502C6.80008 3.76335 7.31591 3.33335 7.91675 3.33335C8.60591 3.33335 9.16675 3.89419 9.16675 4.58335V15.4167ZM16.5909 12.1384C16.5826 12.1667 16.5742 12.195 16.5651 12.2225C16.5109 12.3717 16.4409 12.5134 16.3476 12.64C16.3451 12.6434 16.3417 12.6467 16.3392 12.6509C16.1351 12.9234 15.8467 13.1359 15.5009 13.245C15.4951 13.2467 15.4917 13.2517 15.4859 13.2534C15.3309 13.3 15.1701 13.3334 15.0001 13.3334C14.7684 13.3334 14.5442 13.2867 14.3342 13.195C13.9109 13.0092 13.4209 13.205 13.2376 13.6267C13.0534 14.0484 13.2459 14.54 13.6684 14.7234C14.0667 14.8967 14.4909 14.9825 14.9267 14.9925C14.7584 15.4742 14.3092 15.8242 13.7734 15.8334C13.4934 15.8092 13.2409 15.9475 13.0776 16.1634C12.8351 16.4834 12.4734 16.6667 12.0834 16.6667C11.3942 16.6667 10.8334 16.1059 10.8334 15.4167V4.58335C10.8334 3.89419 11.3942 3.33335 12.0834 3.33335C12.6842 3.33335 13.2001 3.76335 13.3092 4.35585C13.3717 4.69585 13.6384 4.96252 13.9784 5.02502C14.4392 5.11002 14.7942 5.44335 14.9326 5.86919C14.8167 5.85502 14.7026 5.83335 14.5834 5.83335C14.1859 5.83335 13.8009 5.91252 13.4376 6.06752C13.0142 6.24835 12.8184 6.73835 12.9992 7.16169C13.1801 7.58419 13.6692 7.78335 14.0934 7.59919C14.2484 7.53335 14.4126 7.50002 14.5834 7.50002C14.8259 7.50002 15.0509 7.57252 15.2426 7.69252C15.2426 7.69252 15.2442 7.69419 15.2459 7.69502C15.4209 7.80585 15.5601 7.95502 15.6601 8.12502C15.6709 8.14335 15.6809 8.16252 15.6909 8.18169C15.7259 8.24835 15.7526 8.31835 15.7751 8.39085C15.7817 8.41419 15.7909 8.43669 15.7967 8.46085C15.8192 8.55502 15.8334 8.65085 15.8334 8.75002C15.8334 8.92835 15.7909 9.10835 15.7067 9.28502C15.6901 9.32002 15.6884 9.35752 15.6767 9.39335C15.6659 9.42752 15.6551 9.46002 15.6484 9.49502C15.6342 9.57169 15.6334 9.64752 15.6409 9.72419C15.6434 9.74669 15.6417 9.76835 15.6459 9.79002C15.6634 9.88752 15.6967 9.98002 15.7476 10.0659C15.7492 10.0675 15.7492 10.07 15.7501 10.0725C15.8067 10.1659 15.8767 10.2525 15.9701 10.3192C16.2242 10.5025 16.4076 10.7467 16.5251 11.02C16.6109 11.2234 16.6667 11.4409 16.6667 11.6667C16.6667 11.83 16.6359 11.9875 16.5909 12.1384Z"/>
</mask>
<path d="M18.2784 11.1C18.2717 11.0642 18.2667 11.0292 18.2592 10.9942C18.2209 10.8084 18.1684 10.6267 18.0992 10.4517C18.0951 10.4409 18.0892 10.4309 18.0851 10.42C17.9309 10.0409 17.7084 9.69252 17.4267 9.39169C17.4751 9.18002 17.5001 8.96585 17.5001 8.75002C17.5001 8.55169 17.4801 8.35585 17.4409 8.16669C17.4217 8.07085 17.3842 7.98252 17.3551 7.89002C17.3267 7.80002 17.3076 7.70669 17.2709 7.62002C17.1209 7.26502 16.9026 6.94669 16.6326 6.68002C16.6551 6.53585 16.6667 6.39252 16.6667 6.25002C16.6667 5.02835 15.9084 3.95835 14.8009 3.53169C14.3751 2.42502 13.3051 1.66669 12.0834 1.66669C11.2667 1.66669 10.5301 2.00585 10.0001 2.54835C9.47008 2.00585 8.73341 1.66669 7.91675 1.66669C6.69508 1.66669 5.62508 2.42502 5.19925 3.53169C4.09175 3.95835 3.33341 5.02835 3.33341 6.25002C3.33341 6.39252 3.34508 6.53585 3.36675 6.67919C3.09675 6.94585 2.87841 7.26502 2.72841 7.61919C2.69341 7.70252 2.67508 7.79335 2.64758 7.88002C2.61758 7.97502 2.57925 8.06752 2.55925 8.16669C2.52008 8.35669 2.50008 8.55169 2.50008 8.75002C2.50008 8.96585 2.52508 9.17919 2.57341 9.39002L2.57091 9.39335C2.29008 9.69419 2.06758 10.0417 1.91425 10.4209C1.91008 10.4309 1.90508 10.44 1.90091 10.45C1.83175 10.6259 1.77925 10.8084 1.74008 10.9942C1.73258 11.0292 1.72758 11.0642 1.72091 11.0992C1.68925 11.2859 1.66675 11.475 1.66675 11.6667C1.66675 11.8709 1.69175 12.0684 1.72675 12.2634C1.73591 12.3117 1.74508 12.3592 1.75591 12.4075C1.79925 12.5959 1.85258 12.7809 1.92675 12.9567C1.93175 12.9684 1.93925 12.9792 1.94425 12.9917C2.01425 13.1525 2.10008 13.305 2.19508 13.4525C2.22675 13.5017 2.25925 13.55 2.29258 13.5975C2.38008 13.7192 2.47425 13.8342 2.57758 13.9434C2.63758 14.0067 2.70008 14.065 2.76508 14.1234C2.84925 14.1992 2.93591 14.2725 3.02758 14.34C3.11008 14.4009 3.19508 14.4567 3.28341 14.51C3.30091 14.52 3.31591 14.5334 3.33341 14.5434C3.33341 14.5575 3.33341 14.57 3.33341 14.5842C3.33341 16.06 4.43425 17.2825 5.85842 17.475C6.40341 18.0242 7.13425 18.3334 7.91675 18.3334C8.73341 18.3334 9.47008 17.9942 10.0001 17.4517C10.5301 17.9942 11.2667 18.3334 12.0834 18.3334C12.8659 18.3334 13.5967 18.0242 14.1417 17.4742C15.5659 17.2817 16.6667 16.0592 16.6667 14.5834C16.6667 14.5692 16.6667 14.5567 16.6667 14.5425C16.6842 14.5325 16.6992 14.52 16.7167 14.5092C16.8051 14.4559 16.8901 14.4 16.9726 14.3392C17.0651 14.2717 17.1509 14.1984 17.2351 14.1225C17.2992 14.0642 17.3626 14.0059 17.4226 13.9425C17.5259 13.8342 17.6201 13.7184 17.7076 13.5967C17.7417 13.5492 17.7742 13.5009 17.8051 13.4517C17.8992 13.3042 17.9851 13.1517 18.0559 12.9909C18.0609 12.9792 18.0684 12.9684 18.0734 12.9559C18.1476 12.78 18.2009 12.595 18.2442 12.4067C18.2551 12.3592 18.2642 12.3117 18.2734 12.2625C18.3084 12.0684 18.3334 11.8709 18.3334 11.6667C18.3334 11.475 18.3109 11.2859 18.2784 11.1ZM9.16675 15.4167C9.16675 16.1059 8.60591 16.6667 7.91675 16.6667C7.52675 16.6667 7.16508 16.4834 6.92341 16.1634C6.76591 15.955 6.52008 15.8325 6.25842 15.8325C6.24841 15.8325 6.23841 15.8325 6.22758 15.8334C5.69175 15.8234 5.24175 15.4734 5.07425 14.9925C5.51008 14.9825 5.93341 14.8967 6.33258 14.7234C6.75425 14.5392 6.94675 14.0475 6.76342 13.6267C6.57925 13.2042 6.08842 13.0109 5.66675 13.195C5.45592 13.2867 5.23175 13.3334 5.00008 13.3334C4.83008 13.3334 4.66925 13.3 4.51508 13.2534C4.50925 13.2517 4.50591 13.2467 4.50008 13.245C4.15425 13.135 3.86591 12.9234 3.66175 12.6509C3.65925 12.6475 3.65591 12.6442 3.65341 12.64C3.56008 12.5134 3.49008 12.3717 3.43591 12.2225C3.42591 12.195 3.41841 12.1667 3.41008 12.1384C3.36425 11.9875 3.33341 11.83 3.33341 11.6667C3.33341 11.4409 3.38925 11.2234 3.47508 11.02C3.59258 10.7467 3.77508 10.5034 4.03008 10.3192C4.12341 10.2517 4.19341 10.1659 4.24925 10.0725C4.25091 10.07 4.25091 10.0675 4.25258 10.065C4.30342 9.97919 4.33591 9.88669 4.35341 9.79002C4.35758 9.76835 4.35591 9.74669 4.35841 9.72419C4.36591 9.64752 4.36508 9.57252 4.35091 9.49502C4.34508 9.46002 4.33342 9.42752 4.32342 9.39419C4.31175 9.35835 4.31008 9.32085 4.29341 9.28585C4.20925 9.10835 4.16675 8.92752 4.16675 8.75002C4.16675 8.65085 4.18091 8.55502 4.20425 8.46085C4.21008 8.43669 4.21841 8.41419 4.22591 8.39085C4.24758 8.31919 4.27508 8.24919 4.30925 8.18252C4.31925 8.16335 4.32925 8.14419 4.34008 8.12585C4.44008 7.95585 4.57925 7.80669 4.75425 7.69585C4.75425 7.69585 4.75591 7.69419 4.75758 7.69335C4.94925 7.57252 5.17425 7.50002 5.41675 7.50002C5.58758 7.50002 5.75175 7.53335 5.90591 7.59919C6.32841 7.78252 6.81841 7.58419 7.00008 7.16169C7.18091 6.73835 6.98508 6.24835 6.56175 6.06752C6.19925 5.91252 5.81425 5.83335 5.41675 5.83335C5.29758 5.83335 5.18341 5.85502 5.06758 5.86835C5.20591 5.44252 5.56091 5.10919 6.02175 5.02419C6.36175 4.96169 6.62842 4.69502 6.69092 4.35502C6.80008 3.76335 7.31591 3.33335 7.91675 3.33335C8.60591 3.33335 9.16675 3.89419 9.16675 4.58335V15.4167ZM16.5909 12.1384C16.5826 12.1667 16.5742 12.195 16.5651 12.2225C16.5109 12.3717 16.4409 12.5134 16.3476 12.64C16.3451 12.6434 16.3417 12.6467 16.3392 12.6509C16.1351 12.9234 15.8467 13.1359 15.5009 13.245C15.4951 13.2467 15.4917 13.2517 15.4859 13.2534C15.3309 13.3 15.1701 13.3334 15.0001 13.3334C14.7684 13.3334 14.5442 13.2867 14.3342 13.195C13.9109 13.0092 13.4209 13.205 13.2376 13.6267C13.0534 14.0484 13.2459 14.54 13.6684 14.7234C14.0667 14.8967 14.4909 14.9825 14.9267 14.9925C14.7584 15.4742 14.3092 15.8242 13.7734 15.8334C13.4934 15.8092 13.2409 15.9475 13.0776 16.1634C12.8351 16.4834 12.4734 16.6667 12.0834 16.6667C11.3942 16.6667 10.8334 16.1059 10.8334 15.4167V4.58335C10.8334 3.89419 11.3942 3.33335 12.0834 3.33335C12.6842 3.33335 13.2001 3.76335 13.3092 4.35585C13.3717 4.69585 13.6384 4.96252 13.9784 5.02502C14.4392 5.11002 14.7942 5.44335 14.9326 5.86919C14.8167 5.85502 14.7026 5.83335 14.5834 5.83335C14.1859 5.83335 13.8009 5.91252 13.4376 6.06752C13.0142 6.24835 12.8184 6.73835 12.9992 7.16169C13.1801 7.58419 13.6692 7.78335 14.0934 7.59919C14.2484 7.53335 14.4126 7.50002 14.5834 7.50002C14.8259 7.50002 15.0509 7.57252 15.2426 7.69252C15.2426 7.69252 15.2442 7.69419 15.2459 7.69502C15.4209 7.80585 15.5601 7.95502 15.6601 8.12502C15.6709 8.14335 15.6809 8.16252 15.6909 8.18169C15.7259 8.24835 15.7526 8.31835 15.7751 8.39085C15.7817 8.41419 15.7909 8.43669 15.7967 8.46085C15.8192 8.55502 15.8334 8.65085 15.8334 8.75002C15.8334 8.92835 15.7909 9.10835 15.7067 9.28502C15.6901 9.32002 15.6884 9.35752 15.6767 9.39335C15.6659 9.42752 15.6551 9.46002 15.6484 9.49502C15.6342 9.57169 15.6334 9.64752 15.6409 9.72419C15.6434 9.74669 15.6417 9.76835 15.6459 9.79002C15.6634 9.88752 15.6967 9.98002 15.7476 10.0659C15.7492 10.0675 15.7492 10.07 15.7501 10.0725C15.8067 10.1659 15.8767 10.2525 15.9701 10.3192C16.2242 10.5025 16.4076 10.7467 16.5251 11.02C16.6109 11.2234 16.6667 11.4409 16.6667 11.6667C16.6667 11.83 16.6359 11.9875 16.5909 12.1384Z" fill="#9CA3AF" stroke="#9CA3AF" stroke-width="2" mask="url(#path-1-inside-1_162_3128)"/>
</svg>
