<svg width="20" height="20" viewBox="0 0 20 20" fill="none" xmlns="http://www.w3.org/2000/svg">
<path d="M2.70471 7.80001C2.39235 8.15335 2.44353 8.67918 2.81765 8.97335C2.98265 9.10335 3.18206 9.16669 3.38147 9.16669C3.63471 9.16669 3.88529 9.06419 4.06088 8.86668L2.70471 7.80001ZM3.6867 8.53503C3.61249 8.61816 3.5017 8.66669 3.38147 8.66669C3.28771 8.66669 3.19885 8.63715 3.12708 8.58061L3.1267 8.5803C2.97395 8.46019 2.96121 8.26478 3.07932 8.13117L3.07963 8.13082L7.49096 3.13129C7.49104 3.1312 7.49112 3.13111 7.49119 3.13102C7.54747 3.0676 7.65521 3.01499 7.79456 3.01499C7.93392 3.01499 8.04167 3.06761 8.09794 3.13104C8.09801 3.13112 8.09809 3.1312 8.09816 3.13129L11.8309 7.36245L12.2059 7.78746L12.5808 7.36245L16.3137 3.13115C16.3138 3.13107 16.3139 3.131 16.3139 3.13092C16.448 2.97949 16.7025 2.95252 16.8734 3.08647C17.0261 3.20659 17.0388 3.40193 16.9207 3.5355L16.9204 3.53585L12.509 8.53539C12.509 8.53549 12.5089 8.53559 12.5088 8.53569C12.4525 8.5991 12.3448 8.65169 12.2054 8.65169C12.0661 8.65169 11.9583 8.59906 11.9021 8.53563C11.902 8.53555 11.9019 8.53547 11.9018 8.53539L8.16906 4.30422L7.79412 3.87921L7.41917 4.30422L3.68721 8.53447C3.68704 8.53466 3.68687 8.53485 3.6867 8.53503ZM3 12.5C3 12.3424 3.14358 12.1667 3.38235 12.1667C3.62113 12.1667 3.76471 12.3424 3.76471 12.5V16.6667C3.76471 16.8244 3.62113 17.0001 3.38235 17.0001C3.14358 17.0001 3 16.8244 3 16.6667V12.5ZM7.41176 9.16669C7.41176 9.00905 7.55534 8.83335 7.79412 8.83335C8.03289 8.83335 8.17647 9.00905 8.17647 9.16669V16.6667C8.17647 16.8244 8.03289 17.0001 7.79412 17.0001C7.55534 17.0001 7.41176 16.8244 7.41176 16.6667V9.16669ZM11.8235 12.5C11.8235 12.3424 11.9671 12.1667 12.2059 12.1667C12.4447 12.1667 12.5882 12.3424 12.5882 12.5V16.6667C12.5882 16.8244 12.4447 17.0001 12.2059 17.0001C11.9671 17.0001 11.8235 16.8244 11.8235 16.6667V12.5ZM16.2353 9.16669C16.2353 9.00905 16.3789 8.83335 16.6176 8.83335C16.8564 8.83335 17 9.00905 17 9.16669V16.6667C17 16.8244 16.8564 17.0001 16.6176 17.0001C16.3789 17.0001 16.2353 16.8244 16.2353 16.6667V9.16669Z" fill="#111928" stroke="#111928"/>
</svg>
