<svg width="20" height="20" viewBox="0 0 20 20" fill="none" xmlns="http://www.w3.org/2000/svg">
<path d="M12.6681 2.74914L12.8123 3.00002H13.1017H15.8333C16.1428 3.00002 16.4395 3.12294 16.6583 3.34173L17.0118 2.98818L16.6583 3.34173C16.8771 3.56052 17 3.85727 17 4.16669V16.6667C17 16.9761 16.8771 17.2729 16.6583 17.4916C16.4395 17.7104 16.1428 17.8334 15.8333 17.8334H4.16667C3.85725 17.8334 3.5605 17.7104 3.34171 17.4916C3.12292 17.2729 3 16.9761 3 16.6667V4.16669C3 3.85727 3.12292 3.56052 3.34171 3.34173C3.5605 3.12294 3.85725 3.00002 4.16667 3.00002H6.89833H7.18769L7.33185 2.74914C7.43328 2.57263 7.57935 2.4259 7.75539 2.32367C7.93124 2.22155 8.13082 2.16742 8.33416 2.16669H11.6658C11.8692 2.16742 12.0688 2.22155 12.2446 2.32367C12.4207 2.4259 12.5667 2.57263 12.6681 2.74914ZM12.1667 3.33335V2.83335H11.6667H8.33333H7.83333V3.33335V5.00002V5.50002H8.33333H11.6667H12.1667V5.00002V3.33335ZM15.8333 17.1667H16.3333V16.6667V4.16669V3.66669H15.8333H13.3333H12.8333V4.16669V5.00002V5.50002H13.3333C13.4217 5.50002 13.5065 5.53514 13.569 5.59765C13.6315 5.66016 13.6667 5.74495 13.6667 5.83335C13.6667 5.92176 13.6315 6.00655 13.569 6.06906C13.5065 6.13157 13.4217 6.16669 13.3333 6.16669H6.66667C6.57826 6.16669 6.49348 6.13157 6.43096 6.06906C6.36845 6.00654 6.33333 5.92176 6.33333 5.83335C6.33333 5.74495 6.36845 5.66016 6.43096 5.59765C6.49348 5.53514 6.57826 5.50002 6.66667 5.50002H7.16667V5.00002V4.16669V3.66669H6.66667H4.16667H3.66667V4.16669V16.6667V17.1667H4.16667H15.8333ZM9.18863 13.1909V13.1908L9.18356 13.1909C9.09745 13.1914 9.0146 13.1579 8.95305 13.0977L8.95153 13.0962L7.26571 11.4603C7.26559 11.4602 7.26547 11.4601 7.26535 11.46C7.23396 11.4293 7.20889 11.3927 7.19157 11.3524C7.17419 11.3119 7.16495 11.2684 7.1644 11.2243C7.16384 11.1802 7.17196 11.1365 7.18831 11.0955C7.20466 11.0546 7.22891 11.0173 7.25968 10.9857C7.29045 10.9542 7.32713 10.929 7.36763 10.9116C7.40814 10.8942 7.45167 10.885 7.49574 10.8844C7.53981 10.8839 7.58356 10.892 7.6245 10.9083C7.66542 10.9247 7.70274 10.9489 7.73429 10.9797L7.73509 10.9805L8.84175 12.0546L9.18985 12.3925L9.53809 12.0548L12.2714 9.40395L12.2716 9.40409L12.2813 9.39406C12.3124 9.36216 12.3496 9.33681 12.3907 9.31953C12.4318 9.30224 12.4759 9.29337 12.5204 9.29342C12.565 9.29348 12.6091 9.30247 12.6501 9.31986C12.6911 9.33725 12.7283 9.36268 12.7593 9.39466L13.1182 9.04653L12.7593 9.39467C12.7903 9.42665 12.8146 9.46452 12.8307 9.50606C12.8469 9.54759 12.8545 9.59193 12.8532 9.63647C12.8519 9.68101 12.8417 9.72484 12.8232 9.76536C12.8046 9.80588 12.7782 9.84227 12.7453 9.8724L12.7452 9.87225L12.7351 9.88201L9.42265 13.0962L9.42229 13.0965C9.35975 13.1573 9.27586 13.1912 9.18863 13.1909Z" fill="#9CA3AF" stroke="#9CA3AF"/>
</svg>
