<svg width="12" height="12" viewBox="0 0 12 12" fill="none" xmlns="http://www.w3.org/2000/svg">
<path d="M7.18858 6.01008L11.5994 1.59924C11.679 1.52237 11.7425 1.43042 11.7862 1.32875C11.8298 1.22708 11.8528 1.11773 11.8538 1.00708C11.8547 0.896429 11.8337 0.786696 11.7918 0.684282C11.7499 0.581869 11.688 0.488825 11.6097 0.410581C11.5315 0.332337 11.4385 0.27046 11.336 0.228559C11.2336 0.186658 11.1239 0.165574 11.0132 0.166535C10.9026 0.167497 10.7932 0.190485 10.6916 0.23416C10.5899 0.277834 10.498 0.341319 10.4211 0.420911L6.01025 4.83174L1.59941 0.420911C1.44224 0.269113 1.23174 0.185117 1.01324 0.187016C0.794747 0.188914 0.585737 0.276555 0.43123 0.431062C0.276723 0.585569 0.189082 0.794579 0.187183 1.01308C0.185285 1.23157 0.26928 1.44208 0.421079 1.59924L4.83191 6.01008L0.421079 10.4209C0.341487 10.4978 0.278002 10.5897 0.234327 10.6914C0.190653 10.7931 0.167665 10.9024 0.166703 11.0131C0.165742 11.1237 0.186826 11.2335 0.228727 11.3359C0.270628 11.4383 0.332505 11.5313 0.410749 11.6096C0.488993 11.6878 0.582037 11.7497 0.68445 11.7916C0.786864 11.8335 0.896597 11.8546 1.00725 11.8536C1.1179 11.8527 1.22725 11.8297 1.32892 11.786C1.43059 11.7423 1.52254 11.6788 1.59941 11.5992L6.01025 7.18841L10.4211 11.5992C10.5782 11.751 10.7887 11.835 11.0072 11.8331C11.2257 11.8312 11.4348 11.7436 11.5893 11.5891C11.7438 11.4346 11.8314 11.2256 11.8333 11.0071C11.8352 10.7886 11.7512 10.5781 11.5994 10.4209L7.18858 6.01008Z" fill="#9CA3AF"/>
</svg>
