<svg width="20" height="20" viewBox="0 0 20 20" fill="none" xmlns="http://www.w3.org/2000/svg">
<path d="M4.16198 5.79014L4.04929 5.44556H3.68675H2.50008C2.40734 5.44556 2.32105 5.40958 2.25952 5.34971C2.19845 5.29029 2.16675 5.21265 2.16675 5.13467C2.16675 5.05669 2.19845 4.97905 2.25952 4.91963L1.91083 4.56129L2.25952 4.91963C2.32105 4.85976 2.40734 4.82378 2.50008 4.82378H3.68675H4.04929L4.16198 4.4792C4.30129 4.05322 4.5771 3.67888 4.95222 3.41198C5.32753 3.14495 5.78207 3 6.25008 3C6.71809 3 7.17264 3.14495 7.54795 3.41198C7.92307 3.67888 8.19887 4.05322 8.33818 4.4792L8.45088 4.82378H8.81342H17.5001C17.5928 4.82378 17.6791 4.85976 17.7406 4.91963C17.8017 4.97905 17.8334 5.05669 17.8334 5.13467C17.8334 5.21265 17.8017 5.29029 17.7406 5.34971C17.6791 5.40958 17.5928 5.44556 17.5001 5.44556H8.81342H8.45088L8.33818 5.79014C8.19887 6.21612 7.92307 6.59047 7.54795 6.85736C7.17264 7.12439 6.71809 7.26934 6.25008 7.26934C5.78207 7.26934 5.32753 7.12439 4.95222 6.85736C4.5771 6.59047 4.30129 6.21612 4.16198 5.79014ZM6.25008 3.62106L6.24931 3.62106C5.84517 3.62169 5.45511 3.77806 5.1653 4.06007C4.87503 4.34252 4.70908 4.72837 4.70841 5.13385V5.13467C4.70841 5.43712 4.80065 5.73161 4.97179 5.98084C5.1428 6.22988 5.38442 6.42197 5.66454 6.53487C5.94455 6.64773 6.25191 6.67706 6.54832 6.6197C6.84477 6.56231 7.1189 6.42036 7.33535 6.20975C7.55193 5.99899 7.70105 5.7288 7.7616 5.43256L7.27173 5.33242L7.7616 5.43255C7.82218 5.13621 7.79096 4.8292 7.67251 4.55095C7.55413 4.27285 7.35462 4.03737 7.10135 3.8727C6.84822 3.70812 6.552 3.62106 6.25008 3.62106ZM8.33818 14.2099L8.45088 14.5544H8.81342H17.5001C17.5928 14.5544 17.6791 14.5904 17.7406 14.6503C17.8017 14.7097 17.8334 14.7873 17.8334 14.8653C17.8334 14.9433 17.8017 15.0209 17.7406 15.0804C17.6791 15.1402 17.5928 15.1762 17.5001 15.1762H8.81342H8.45088L8.33818 15.5208C8.19887 15.9468 7.92307 16.3211 7.54795 16.588C7.17264 16.855 6.71809 17 6.25008 17C5.78207 17 5.32753 16.855 4.95222 16.588C4.5771 16.3211 4.30129 15.9468 4.16198 15.5208L4.04929 15.1762H3.68675H2.50008C2.40734 15.1762 2.32105 15.1402 2.25952 15.0804C2.19846 15.0209 2.16675 14.9433 2.16675 14.8653C2.16675 14.7873 2.19846 14.7097 2.25952 14.6503C2.32105 14.5904 2.40734 14.5544 2.50008 14.5544H3.68675H4.04929L4.16198 14.2099C4.30129 13.7839 4.5771 13.4095 4.95222 13.1426C5.32753 12.8756 5.78207 12.7307 6.25008 12.7307C6.71809 12.7307 7.17264 12.8756 7.54795 13.1426C7.92307 13.4095 8.19887 13.7839 8.33818 14.2099ZM6.25008 16.3789L6.25086 16.3789C6.655 16.3783 7.04505 16.2219 7.33486 15.9399C7.62513 15.6575 7.79108 15.2716 7.79175 14.8661V14.8653C7.79175 14.5629 7.69951 14.2684 7.52838 14.0192C7.35736 13.7701 7.11575 13.578 6.83563 13.4651C6.55561 13.3523 6.24825 13.3229 5.95185 13.3803L6.04686 13.8712L5.95185 13.3803C5.65539 13.4377 5.38126 13.5796 5.16482 13.7903C4.94823 14.001 4.79912 14.2712 4.73856 14.5674C4.67798 14.8638 4.70921 15.1708 4.82765 15.4491C4.94603 15.7272 5.14554 15.9626 5.39881 16.1273L5.67136 15.7081L5.39882 16.1273C5.65195 16.2919 5.94816 16.3789 6.25008 16.3789ZM15.8382 9.34453L15.9509 9.68911H16.3134H17.5001C17.5928 9.68911 17.6791 9.72509 17.7406 9.78496C17.8017 9.84438 17.8334 9.92202 17.8334 10C17.8334 10.078 17.8017 10.1556 17.7406 10.215C17.6791 10.2749 17.5928 10.3109 17.5001 10.3109H16.3134H15.9509L15.8382 10.6555C15.6989 11.0815 15.4231 11.4558 15.0479 11.7227C14.6726 11.9897 14.2181 12.1347 13.7501 12.1347C13.2821 12.1347 12.8275 11.9897 12.4522 11.7227C12.0771 11.4558 11.8013 11.0815 11.662 10.6555L11.5493 10.3109H11.1867H2.50008C2.40734 10.3109 2.32105 10.2749 2.25952 10.215C2.19846 10.1556 2.16675 10.078 2.16675 10C2.16675 9.92202 2.19845 9.84438 2.25952 9.78496C2.32105 9.72509 2.40734 9.68911 2.50008 9.68911H11.1867H11.5493L11.662 9.34453C11.8013 8.91855 12.0771 8.54421 12.4522 8.27731C12.8275 8.01028 13.2821 7.86533 13.7501 7.86533C14.2181 7.86533 14.6726 8.01028 15.0479 8.27731C15.4231 8.54421 15.6989 8.91855 15.8382 9.34453ZM13.7501 11.5136L13.7509 11.5136C14.155 11.513 14.545 11.3566 14.8349 11.0746C15.1251 10.7922 15.2911 10.4063 15.2917 10.0008V10C15.2917 9.69755 15.1995 9.40306 15.0284 9.15383C14.8574 8.90479 14.6157 8.7127 14.3356 8.5998C14.0556 8.48694 13.7483 8.45761 13.4518 8.51498C13.1554 8.57236 12.8813 8.71431 12.6648 8.92492C12.4482 9.13568 12.2991 9.40587 12.2386 9.70212C12.178 9.99846 12.2092 10.3055 12.3277 10.5837C12.446 10.8618 12.6455 11.0973 12.8988 11.262C13.1519 11.4266 13.4482 11.5136 13.7501 11.5136Z" fill="#9CA3AF" stroke="#9CA3AF"/>
</svg>
