<svg width="20" height="20" viewBox="0 0 20 20" fill="none" xmlns="http://www.w3.org/2000/svg">
<path d="M16.9832 10.7181L16.979 10.796L16.9987 10.8714C16.9992 10.8731 16.9996 10.8748 17 10.8764V15.8333C17 16.1428 16.8771 16.4395 16.6583 16.6583C16.4395 16.8771 16.1428 17 15.8333 17H4.16667C3.85725 17 3.5605 16.8771 3.34171 16.6583C3.12292 16.4395 3 16.1428 3 15.8333V10.8822C3.00017 10.8815 3.00034 10.8809 3.00052 10.8803L3.02289 10.8007L3.01844 10.7181C3.01833 10.7161 3.01824 10.714 3.01816 10.7119L4.67392 3.261C4.67392 3.26099 4.67392 3.26098 4.67393 3.26097C4.6904 3.18691 4.73164 3.12068 4.79085 3.07323L4.47816 2.68307L4.79085 3.07323C4.85007 3.02577 4.9237 2.99994 4.99959 3H5L15 3.00001L15.0014 3C15.0774 2.99979 15.1512 3.02555 15.2106 3.07302C15.2699 3.12048 15.3112 3.18679 15.3277 3.26097C15.3277 3.26098 15.3277 3.26099 15.3277 3.261L16.9835 10.7119C16.9834 10.714 16.9833 10.7161 16.9832 10.7181ZM5.66667 3.66667H5.26544L5.17854 4.05837L3.88437 9.89171L3.74941 10.5H4.3725L6.19756 10.5C6.19773 10.5 6.19791 10.5 6.19809 10.5C6.42402 10.5005 6.64492 10.5668 6.83373 10.6909C7.02241 10.8149 7.17086 10.9911 7.26094 11.1981C7.49069 11.7337 7.87245 12.1902 8.35899 12.5111C8.8459 12.8322 9.41633 13.0033 9.99958 13.0033C10.5828 13.0033 11.1533 12.8322 11.6402 12.5111C12.1266 12.1903 12.5083 11.7339 12.7381 11.1985C12.8287 10.9916 12.9774 10.8155 13.1662 10.6915C13.3553 10.5673 13.5764 10.5008 13.8026 10.5H15.6292H16.2524L16.1173 9.89157L14.8214 4.05824L14.7345 3.66667H14.3333H5.66667ZM15.8333 16.3333H16.3333V15.8333V11.6667V11.1667H15.8333H13.8058H13.4772L13.3468 11.4684C13.0645 12.1219 12.5971 12.6785 12.0022 13.0695C11.4074 13.4605 10.711 13.6689 9.99917 13.6689C9.28728 13.6689 8.59097 13.4605 7.9961 13.0695C7.40122 12.6785 6.93381 12.1219 6.6515 11.4684L6.52117 11.1667H6.1925H4.16667H3.66667V11.6667V15.8333V16.3333H4.16667H15.8333ZM12.7357 5.59763L13.0893 5.24408L12.7357 5.59764C12.7982 5.66015 12.8333 5.74493 12.8333 5.83334C12.8333 5.92174 12.7982 6.00653 12.7357 6.06904C12.6732 6.13155 12.5884 6.16667 12.5 6.16667H7.5C7.41159 6.16667 7.32681 6.13155 7.2643 6.06904C7.20179 6.00653 7.16667 5.92174 7.16667 5.83334C7.16667 5.74493 7.20179 5.66015 7.2643 5.59763C7.32681 5.53512 7.41159 5.5 7.5 5.5H12.5C12.5884 5.5 12.6732 5.53512 12.7357 5.59763ZM13.3333 8.66667H6.66667C6.57826 8.66667 6.49348 8.63155 6.43096 8.56904C6.36845 8.50653 6.33333 8.42174 6.33333 8.33334C6.33333 8.24493 6.36845 8.16015 6.43096 8.09763C6.49348 8.03512 6.57826 8 6.66667 8H13.3333C13.4217 8 13.5065 8.03512 13.569 8.09763C13.6315 8.16015 13.6667 8.24493 13.6667 8.33334C13.6667 8.42174 13.6315 8.50653 13.569 8.56904C13.5065 8.63155 13.4217 8.66667 13.3333 8.66667Z" fill="#9CA3AF" stroke="#9CA3AF"/>
</svg>
