<svg width="20" height="20" viewBox="0 0 20 20" fill="none" xmlns="http://www.w3.org/2000/svg">
<path d="M6.05295 17H6.05271C5.95362 17 5.858 16.9604 5.78703 16.8891C5.71597 16.8176 5.67552 16.72 5.67552 16.6176V13.9706V13.4706H5.17552H3.42113C3.0894 13.4706 2.77066 13.3381 2.53518 13.1012C2.29961 12.8642 2.16675 12.5422 2.16675 12.2059V4.26471C2.16675 3.92834 2.29961 3.60634 2.53518 3.36939C2.77066 3.13253 3.0894 3 3.42113 3H16.579C16.9108 3 17.2295 3.13253 17.465 3.36938C17.7006 3.60634 17.8334 3.92834 17.8334 4.26471V12.2059C17.8334 12.5422 17.7006 12.8642 17.465 13.1012L17.8196 13.4537L17.465 13.1012C17.2295 13.3381 16.9108 13.4706 16.579 13.4706H10.7466H10.5704L10.4331 13.5811L6.28758 16.9172C6.28755 16.9172 6.28752 16.9172 6.28748 16.9172C6.22054 16.971 6.13782 17 6.05295 17ZM3.42113 3.76471H2.92113V4.26471V12.2059V12.7059H3.42113H6.05271C6.1518 12.7059 6.24743 12.7454 6.31839 12.8168C6.38946 12.8883 6.42991 12.9859 6.42991 13.0882V14.7815V15.8256L7.24337 15.171L10.2038 12.7887C10.2038 12.7887 10.2039 12.7887 10.2039 12.7887C10.2708 12.7348 10.3536 12.7058 10.4384 12.7059H10.4387H16.579H17.079V12.2059V4.26471V3.76471H16.579H3.42113ZM6.8685 8.23529C6.8685 8.44923 6.69687 8.61765 6.49131 8.61765C6.28575 8.61765 6.11412 8.44923 6.11412 8.23529C6.11412 8.02136 6.28575 7.85294 6.49131 7.85294C6.69687 7.85294 6.8685 8.02136 6.8685 8.23529ZM10.3773 8.23529C10.3773 8.44923 10.2056 8.61765 10.0001 8.61765C9.79453 8.61765 9.62289 8.44923 9.62289 8.23529C9.62289 8.02136 9.79453 7.85294 10.0001 7.85294C10.2056 7.85294 10.3773 8.02136 10.3773 8.23529ZM13.886 8.23529C13.886 8.44923 13.7144 8.61765 13.5089 8.61765C13.3033 8.61765 13.1317 8.44923 13.1317 8.23529C13.1317 8.02136 13.3033 7.85294 13.5089 7.85294C13.7144 7.85294 13.886 8.02136 13.886 8.23529Z" fill="#9CA3AF" stroke="#9CA3AF"/>
</svg>
