<svg width="20" height="20" viewBox="0 0 20 20" fill="none" xmlns="http://www.w3.org/2000/svg">
<path d="M5.28768 8.48714C5.82157 8.86266 6.44638 9.06132 7.08322 9.06136C7.93639 9.06026 8.75984 8.70324 9.37135 8.05955C9.98376 7.4149 10.3324 6.53565 10.3334 5.6135L5.28768 8.48714ZM5.28768 8.48714L5.00003 8.89611M5.28768 8.48714L5.00003 8.89611M5.00003 8.89611L5.28767 8.48714C4.75338 8.11134 4.33321 7.57445 4.08414 6.9415M5.00003 8.89611L4.08414 6.9415M4.08414 6.9415C3.83501 6.3084 3.76948 5.61039 3.89678 4.93674M4.08414 6.9415L3.89678 4.93674M3.89678 4.93674C4.02406 4.26317 4.33767 3.64779 4.79426 3.16716M3.89678 4.93674L4.79426 3.16716M4.79426 3.16716C5.2506 2.68681 5.82883 2.36282 6.45429 2.23186M4.79426 3.16716L6.45429 2.23186M6.45429 2.23186C7.07954 2.10095 7.72793 2.16787 8.31864 2.42543M6.45429 2.23186L8.31864 2.42543M8.31864 2.42543C8.9097 2.68314 9.41907 3.12143 9.77929 3.68891M8.31864 2.42543L9.77929 3.68891M9.77929 3.68891C10.1396 4.25649 10.3333 4.92629 10.3334 5.61347L9.77929 3.68891ZM13.3316 4.6754L13.3297 4.67541C13.1963 4.67641 13.0641 4.6903 12.9346 4.7165C12.9001 4.46928 12.8514 4.22438 12.7886 3.98318C12.9685 3.94345 13.152 3.92258 13.3362 3.92101C13.7939 3.91984 14.2462 4.03653 14.6538 4.26254C15.0621 4.48885 15.4141 4.81852 15.6774 5.22495C15.9407 5.63149 16.1066 6.10161 16.1586 6.59432C16.2107 7.08704 16.1472 7.58526 15.9744 8.04489C15.8017 8.50445 15.5256 8.90986 15.1725 9.22698C14.8195 9.54398 14.4004 9.76325 13.9524 9.86808C13.5046 9.97288 13.0394 9.96065 12.5968 9.83227C12.2946 9.74464 12.0084 9.6044 11.7496 9.41747C11.8934 9.22399 12.026 9.02186 12.1468 8.81219C12.2429 8.87806 12.3444 8.9362 12.4504 8.98583C12.7905 9.14493 13.1651 9.2104 13.5381 9.17465C13.911 9.13891 14.2669 9.00348 14.5722 8.78366C14.8774 8.56398 15.1213 8.26783 15.2833 7.92537C15.4452 7.58302 15.5206 7.20425 15.5036 6.82469C15.4865 6.44512 15.3776 6.07494 15.1852 5.74927C14.9928 5.42347 14.7226 5.15191 14.3981 4.96283C14.0734 4.77364 13.7062 4.67402 13.3316 4.6754ZM16.6667 17.0789H17.1667V16.5789V15.7017C17.1667 14.8792 16.8566 14.0856 16.297 13.4965C15.765 12.9365 15.0478 12.6048 14.2884 12.5727C14.1991 12.3137 14.0943 12.0609 13.9749 11.8158H14.1661C15.1299 11.817 16.0594 12.2203 16.7491 12.9463C17.4396 13.6732 17.8322 14.6639 17.8334 15.7023V17.4561C17.8334 17.5642 17.7924 17.663 17.7268 17.732C17.6621 17.8001 17.58 17.8333 17.5001 17.8333H14.6418C14.6573 17.7099 14.6656 17.5854 14.6667 17.4606H14.6667V17.4561V17.0789H16.6667ZM8.08051 8.09838L7.88067 7.64005L8.08051 8.09838C8.55535 7.89134 8.95703 7.5426 9.23778 7.10031C9.51838 6.65826 9.66675 6.14108 9.66675 5.614C9.66675 4.90781 9.40048 4.22572 8.91905 3.71895C8.4368 3.21131 7.77707 2.92101 7.08342 2.92101C6.56659 2.92101 6.06366 3.08247 5.63833 3.38163C5.21334 3.68054 4.88584 4.10263 4.69339 4.59169C4.50101 5.08059 4.45102 5.6172 4.54881 6.13467C4.64661 6.65221 4.88857 7.13093 5.24778 7.50904C5.60725 7.88743 6.06842 8.14826 6.57451 8.25423C7.08082 8.36024 7.60532 8.30557 8.08051 8.09838ZM2.83341 16.5789V17.0789H3.33341H10.8334H11.3334V16.5789V14.8245C11.3334 14.002 11.0233 13.2084 10.4637 12.6193C9.90328 12.0294 9.13758 11.6929 8.33342 11.6929H5.83342C5.02925 11.6929 4.26355 12.0294 3.70315 12.6193C3.14358 13.2084 2.83341 14.002 2.83341 14.8245V16.5789ZM11.6667 17.8333H2.50008C2.42019 17.8333 2.33805 17.8001 2.27333 17.732C2.20777 17.663 2.16675 17.5642 2.16675 17.4561V14.8248C2.168 13.7865 2.56063 12.7959 3.2511 12.0691C3.9408 11.3431 4.87028 10.9398 5.83405 10.9386H8.33278C9.29655 10.9398 10.226 11.3431 10.9157 12.0691C11.6063 12.796 11.9989 13.7867 12.0001 14.8251V17.4561C12.0001 17.5642 11.9591 17.663 11.8935 17.732C11.8288 17.8001 11.7466 17.8333 11.6667 17.8333Z" fill="#9CA3AF" stroke="#9CA3AF"/>
</svg>
