<svg width="16" height="16" viewBox="0 0 16 16" fill="none" xmlns="http://www.w3.org/2000/svg">
<path d="M4.41107 10.3753C5.11806 10.8477 5.94922 11.0999 6.7995 11.1C7.9397 11.0987 9.03284 10.6452 9.83908 9.83898C10.6453 9.03275 11.0988 7.93964 11.1001 6.79947L4.41107 10.3753ZM4.41107 10.3753C3.70393 9.90282 3.15278 9.23126 2.82732 8.44554M4.41107 10.3753L2.82732 8.44554M2.82732 8.44554C2.50186 7.65981 2.41671 6.79523 2.58263 5.96111M2.82732 8.44554L2.58263 5.96111M2.58263 5.96111C2.74854 5.127 3.15808 4.36081 3.75946 3.75944M2.58263 5.96111L3.75946 3.75944M3.75946 3.75944C4.36083 3.15808 5.12703 2.74854 5.96116 2.58263M3.75946 3.75944L5.96116 2.58263M5.96116 2.58263C6.79529 2.41671 7.65989 2.50186 8.44562 2.82732M5.96116 2.58263L8.44562 2.82732M8.44562 2.82732C9.23135 3.15278 9.90293 3.70392 10.3754 4.41105M8.44562 2.82732L10.3754 4.41105M10.3754 4.41105C10.8478 5.11803 11.1 5.94918 11.1001 6.79944L10.3754 4.41105ZM6.80056 2.7H6.80006C5.98915 2.7 5.19645 2.94046 4.5222 3.39097C3.84795 3.84149 3.32244 4.48182 3.01211 5.231C2.70179 5.98017 2.6206 6.80455 2.7788 7.59987C2.937 8.39519 3.32749 9.12574 3.90089 9.69914C4.47429 10.2725 5.20485 10.663 6.00018 10.8212C6.79551 10.9794 7.61989 10.8982 8.36907 10.5879C9.11826 10.2776 9.7586 9.75208 10.2091 9.07784C10.6596 8.4036 10.9001 7.6109 10.9001 6.8V6.7995C10.899 5.71258 10.4668 4.67048 9.69817 3.90191C8.92959 3.13334 7.88749 2.70109 6.80056 2.7ZM10.9338 11.075C10.9167 11.0564 10.9072 11.0319 10.9075 11.0065C10.9077 10.9803 10.9182 10.9552 10.9367 10.9367L10.5832 10.5831L10.9338 11.075Z" fill="#1F2A37" stroke="#6B7280"/>
</svg>
