<svg width="24" height="24" viewBox="0 0 24 24" fill="none" xmlns="http://www.w3.org/2000/svg">
<path d="M6.96999 0.219805C6.80999 0.369805 6.62999 0.769805 6.45999 1.2998C5.74999 3.6698 3.73999 5.6298 1.39999 6.2598C0.609988 6.4698 0.299988 6.7198 0.299988 7.14981C0.299988 7.5998 0.549988 7.7898 1.63999 8.1498C2.92999 8.5798 3.59999 8.9998 4.59999 9.9998C5.60999 11.0098 6.01999 11.6698 6.46999 13.0298C6.82999 14.0898 6.97999 14.2898 7.40999 14.2998C7.83999 14.2998 8.06999 14.0098 8.39999 12.9998C9.09999 10.8698 10.32 9.4698 12.33 8.4898C12.77 8.2798 13.36 8.0598 13.67 7.9898C14.26 7.8598 14.6 7.5498 14.6 7.14981C14.6 6.7498 14.28 6.5098 13.3 6.19981C10.78 5.3798 9.01999 3.56981 8.29999 1.03981C8.00999 0.0298052 7.50999 -0.270195 6.96999 0.219805Z" fill="url(#paint0_linear_236_8785)"/>
<path d="M18.23 7.8498C18.1 7.9398 17.94 8.2398 17.85 8.5698C17.38 10.1898 16.3 11.3198 14.69 11.8598C13.93 12.1098 13.61 12.3798 13.6 12.7498C13.6 13.1298 13.88 13.3698 14.69 13.6498C16.23 14.1898 17.36 15.3298 17.81 16.8298C18.04 17.5498 18.27 17.7998 18.72 17.7998C19.09 17.7998 19.33 17.5198 19.54 16.8298C20.01 15.2998 21.25 14.0498 22.7 13.6398C23.39 13.4398 23.7 13.1698 23.7 12.7498C23.7 12.3598 23.4 12.0798 22.8 11.9098C21.23 11.4598 19.88 10.0998 19.5 8.5698C19.31 7.8198 18.74 7.4998 18.23 7.8498Z" fill="url(#paint1_linear_236_8785)"/>
<path d="M8.77998 15.9899C8.64998 16.0999 8.47998 16.3799 8.40998 16.6199C8.10998 17.6299 7.20998 18.6399 6.31998 18.9499C5.56998 19.2099 5.36998 19.3399 5.19998 19.6299C5.06998 19.8699 5.06998 19.9299 5.19998 20.1699C5.36998 20.4699 5.57998 20.5999 6.32998 20.8599C7.21998 21.1799 8.10998 22.1699 8.40998 23.1799C8.47998 23.4199 8.64998 23.6999 8.77998 23.8099C9.30998 24.2199 9.80998 23.9599 10.04 23.1599C10.23 22.5199 10.72 21.7699 11.21 21.3799C11.4 21.2199 11.92 20.9499 12.35 20.7699C13.23 20.4099 13.43 20.1499 13.24 19.6399C13.14 19.3299 13.05 19.2699 12.27 18.9899C11.2 18.6099 10.34 17.7099 10.07 16.7199C9.84998 15.8899 9.29998 15.5799 8.77998 15.9899Z" fill="url(#paint2_linear_236_8785)"/>
<defs>
<linearGradient id="paint0_linear_236_8785" x1="0.299988" y1="7.14461" x2="17.5857" y2="7.14461" gradientUnits="userSpaceOnUse">
<stop/>
<stop offset="0.9999" stop-color="#109884"/>
</linearGradient>
<linearGradient id="paint1_linear_236_8785" x1="13.6" y1="12.7539" x2="25.8088" y2="12.7539" gradientUnits="userSpaceOnUse">
<stop/>
<stop offset="0.9999" stop-color="#109884"/>
</linearGradient>
<linearGradient id="paint2_linear_236_8785" x1="5.10248" y1="19.9059" x2="15.0185" y2="19.9059" gradientUnits="userSpaceOnUse">
<stop/>
<stop offset="0.9999" stop-color="#109884"/>
</linearGradient>
</defs>
</svg>
