<svg width="16" height="16" viewBox="0 0 16 16" fill="none" xmlns="http://www.w3.org/2000/svg">
<path d="M7.99967 3.99984C8.36787 3.99984 8.66634 3.70136 8.66634 3.33317C8.66634 2.96498 8.36787 2.6665 7.99967 2.6665C7.63147 2.6665 7.33301 2.96498 7.33301 3.33317C7.33301 3.70136 7.63147 3.99984 7.99967 3.99984Z" fill="#6B7280" stroke="#6B7280" stroke-width="2" stroke-linecap="round" stroke-linejoin="round"/>
<path d="M7.99967 8.66683C8.36787 8.66683 8.66634 8.36836 8.66634 8.00016C8.66634 7.63196 8.36787 7.3335 7.99967 7.3335C7.63147 7.3335 7.33301 7.63196 7.33301 8.00016C7.33301 8.36836 7.63147 8.66683 7.99967 8.66683Z" fill="#6B7280" stroke="#6B7280" stroke-width="2" stroke-linecap="round" stroke-linejoin="round"/>
<path d="M7.99967 13.3333C8.36787 13.3333 8.66634 13.0349 8.66634 12.6667C8.66634 12.2985 8.36787 12 7.99967 12C7.63147 12 7.33301 12.2985 7.33301 12.6667C7.33301 13.0349 7.63147 13.3333 7.99967 13.3333Z" fill="#6B7280" stroke="#6B7280" stroke-width="2" stroke-linecap="round" stroke-linejoin="round"/>
<path d="M12.6667 3.99984C13.0349 3.99984 13.3333 3.70136 13.3333 3.33317C13.3333 2.96498 13.0349 2.6665 12.6667 2.6665C12.2985 2.6665 12 2.96498 12 3.33317C12 3.70136 12.2985 3.99984 12.6667 3.99984Z" fill="#6B7280" stroke="#6B7280" stroke-width="2" stroke-linecap="round" stroke-linejoin="round"/>
<path d="M12.6667 8.66683C13.0349 8.66683 13.3333 8.36836 13.3333 8.00016C13.3333 7.63196 13.0349 7.3335 12.6667 7.3335C12.2985 7.3335 12 7.63196 12 8.00016C12 8.36836 12.2985 8.66683 12.6667 8.66683Z" fill="#6B7280" stroke="#6B7280" stroke-width="2" stroke-linecap="round" stroke-linejoin="round"/>
<path d="M12.6667 13.3333C13.0349 13.3333 13.3333 13.0349 13.3333 12.6667C13.3333 12.2985 13.0349 12 12.6667 12C12.2985 12 12 12.2985 12 12.6667C12 13.0349 12.2985 13.3333 12.6667 13.3333Z" fill="#6B7280" stroke="#6B7280" stroke-width="2" stroke-linecap="round" stroke-linejoin="round"/>
<path d="M3.33366 3.99984C3.70185 3.99984 4.00033 3.70136 4.00033 3.33317C4.00033 2.96498 3.70185 2.6665 3.33366 2.6665C2.96547 2.6665 2.66699 2.96498 2.66699 3.33317C2.66699 3.70136 2.96547 3.99984 3.33366 3.99984Z" fill="#6B7280" stroke="#6B7280" stroke-width="2" stroke-linecap="round" stroke-linejoin="round"/>
<path d="M3.33366 8.66683C3.70185 8.66683 4.00033 8.36836 4.00033 8.00016C4.00033 7.63196 3.70185 7.3335 3.33366 7.3335C2.96547 7.3335 2.66699 7.63196 2.66699 8.00016C2.66699 8.36836 2.96547 8.66683 3.33366 8.66683Z" fill="#6B7280" stroke="#6B7280" stroke-width="2" stroke-linecap="round" stroke-linejoin="round"/>
<path d="M3.33366 13.3333C3.70185 13.3333 4.00033 13.0349 4.00033 12.6667C4.00033 12.2985 3.70185 12 3.33366 12C2.96547 12 2.66699 12.2985 2.66699 12.6667C2.66699 13.0349 2.96547 13.3333 3.33366 13.3333Z" fill="#6B7280" stroke="#6B7280" stroke-width="2" stroke-linecap="round" stroke-linejoin="round"/>
</svg>
